<svg width="110" height="110" viewBox="0 0 110 110" fill="none" xmlns="http://www.w3.org/2000/svg">
<circle cx="55" cy="55" r="55" fill="#A4D2BF"/>
<path d="M101.667 55.0002C101.667 80.7734 80.7735 101.667 55.0002 101.667C29.2269 101.667 8.3335 80.7734 8.3335 55.0002C8.3335 29.2269 29.2269 8.3335 55.0002 8.3335C80.7735 8.3335 101.667 29.2269 101.667 55.0002ZM12.2005 55.0002C12.2005 78.6377 31.3626 97.7998 55.0002 97.7998C78.6377 97.7998 97.7998 78.6377 97.7998 55.0002C97.7998 31.3626 78.6377 12.2005 55.0002 12.2005C31.3626 12.2005 12.2005 31.3626 12.2005 55.0002Z" fill="white"/>
<path d="M48.4326 50.7422H53.6963C56.2028 50.7422 58.0599 50.1156 59.2676 48.8623C60.4753 47.609 61.0791 45.9456 61.0791 43.8721C61.0791 41.8669 60.4753 40.306 59.2676 39.1895C58.0827 38.0729 56.4421 37.5146 54.3457 37.5146C52.4544 37.5146 50.8708 38.0387 49.5947 39.0869C48.3187 40.1123 47.6807 41.4567 47.6807 43.1201H37.8027C37.8027 40.5225 38.4977 38.1982 39.8877 36.1475C41.3005 34.0739 43.2601 32.4561 45.7666 31.2939C48.2959 30.1318 51.0758 29.5508 54.1064 29.5508C59.3701 29.5508 63.4945 30.8154 66.4795 33.3447C69.4645 35.8512 70.957 39.3148 70.957 43.7354C70.957 46.014 70.262 48.1104 68.8721 50.0244C67.4821 51.9385 65.6592 53.4082 63.4033 54.4336C66.2061 55.4362 68.291 56.9401 69.6582 58.9453C71.0482 60.9505 71.7432 63.3203 71.7432 66.0547C71.7432 70.4753 70.1253 74.0186 66.8896 76.6846C63.6768 79.3506 59.4157 80.6836 54.1064 80.6836C49.139 80.6836 45.0716 79.3734 41.9043 76.7529C38.7598 74.1325 37.1875 70.6689 37.1875 66.3623H47.0654C47.0654 68.2308 47.7604 69.7575 49.1504 70.9424C50.5632 72.1273 52.2949 72.7197 54.3457 72.7197C56.6927 72.7197 58.527 72.1045 59.8486 70.874C61.193 69.6208 61.8652 67.9688 61.8652 65.918C61.8652 60.9505 59.1309 58.4668 53.6621 58.4668H48.4326V50.7422Z" fill="white"/>
</svg>
