<svg width="110" height="110" viewBox="0 0 110 110" fill="none" xmlns="http://www.w3.org/2000/svg">
<circle cx="55" cy="55" r="55" fill="#B1EEC5"/>
<path d="M101.667 54.9999C101.667 80.7732 80.7735 101.667 55.0002 101.667C29.2269 101.667 8.3335 80.7732 8.3335 54.9999C8.3335 29.2266 29.2269 8.33325 55.0002 8.33325C80.7735 8.33325 101.667 29.2266 101.667 54.9999ZM12.2005 54.9999C12.2005 78.6375 31.3626 97.7995 55.0002 97.7995C78.6377 97.7995 97.7998 78.6375 97.7998 54.9999C97.7998 31.3623 78.6377 12.2003 55.0002 12.2003C31.3626 12.2003 12.2005 31.3623 12.2005 54.9999Z" fill="white"/>
<path d="M72.4951 80H38.3838V73.2324L54.4824 56.0742C56.6927 53.6589 58.3219 51.5511 59.3701 49.751C60.4411 47.9508 60.9766 46.2419 60.9766 44.624C60.9766 42.4137 60.4183 40.682 59.3018 39.4287C58.1852 38.1527 56.5902 37.5146 54.5166 37.5146C52.2835 37.5146 50.5176 38.2894 49.2188 39.8389C47.9427 41.3656 47.3047 43.3822 47.3047 45.8887H37.3926C37.3926 42.8581 38.1104 40.0895 39.5459 37.583C41.0042 35.0765 43.055 33.1169 45.6982 31.7041C48.3415 30.2686 51.3379 29.5508 54.6875 29.5508C59.8145 29.5508 63.7907 30.7812 66.6162 33.2422C69.4645 35.7031 70.8887 39.1781 70.8887 43.667C70.8887 46.1279 70.2507 48.6344 68.9746 51.1865C67.6986 53.7386 65.5111 56.7122 62.4121 60.1074L51.0986 72.0361H72.4951V80Z" fill="white"/>
</svg>
