<svg width="110" height="110" viewBox="0 0 110 110" fill="none" xmlns="http://www.w3.org/2000/svg">
<circle cx="55" cy="55" r="55" fill="#86CDDD"/>
<path d="M101.667 54.9999C101.667 80.7732 80.7733 101.667 55 101.667C29.2268 101.667 8.33337 80.7732 8.33337 54.9999C8.33337 29.2266 29.2268 8.33325 55 8.33325C80.7733 8.33325 101.667 29.2266 101.667 54.9999ZM12.2004 54.9999C12.2004 78.6375 31.3625 97.7995 55 97.7995C78.6376 97.7995 97.7997 78.6375 97.7997 54.9999C97.7997 31.3623 78.6376 12.2003 55 12.2003C31.3625 12.2003 12.2004 31.3623 12.2004 54.9999Z" fill="white"/>
<path d="M62.3779 80H52.5V41.9238L40.708 45.5811V37.5488L61.3184 30.166H62.3779V80Z" fill="white"/>
</svg>
